<svg width="13" height="19" viewBox="0 0 13 19" fill="none" xmlns="http://www.w3.org/2000/svg">
<path d="M6.5 0.189453C2.91588 0.189453 0 3.11382 0 6.70834C0 11.1693 5.81686 17.7181 6.06452 17.9947C6.29714 18.2546 6.70328 18.2541 6.93548 17.9947C7.18314 17.7181 13 11.1693 13 6.70834C12.9999 3.11382 10.0841 0.189453 6.5 0.189453ZM6.5 9.98818C4.69674 9.98818 3.22972 8.51685 3.22972 6.70834C3.22972 4.89983 4.69678 3.42854 6.5 3.42854C8.30322 3.42854 9.77024 4.89987 9.77024 6.70838C9.77024 8.51689 8.30322 9.98818 6.5 9.98818Z" fill="#444243"/>
</svg>
