<svg width="33" height="33" viewBox="0 0 33 33" fill="none" xmlns="http://www.w3.org/2000/svg">
<g clip-path="url(#clip0)">
<path d="M11.666 24.8406C12.1122 25.243 12.4885 25.7105 12.7929 26.2324H29.0684V13.6641H11.666V24.8406ZM20.3672 16.1641L24.9179 20.7149L23.5508 22.082L21.334 19.8652V24.2988H19.4004V19.8652L17.1836 22.082L15.8164 20.7149L20.3672 16.1641Z" fill="#E2001A"/>
<path d="M13.5996 3.93164V11.7305H27.1348V3.93164H21.334V7.79883H19.4004V3.93164H13.5996Z" fill="#E2001A"/>
<path d="M1.99805 1.93359H6.83203V25.4023C5.16682 25.8336 3.93164 27.3329 3.93164 29.1328C3.93164 31.2686 5.66306 33 7.79883 33C9.59873 33 11.098 31.7648 11.5293 30.0996H31.002V28.166H11.5293C11.1786 26.8117 10.1199 25.7531 8.76562 25.4023V0H1.99805L1.99805 1.93359ZM7.79883 28.166C8.33283 28.166 8.76562 28.5988 8.76562 29.1328C8.76562 29.6668 8.33283 30.0996 7.79883 30.0996C7.26482 30.0996 6.83203 29.6668 6.83203 29.1328C6.83203 28.5988 7.26482 28.166 7.79883 28.166Z" fill="#E2001A"/>
</g>
<defs>
<clipPath id="clip0">
<rect width="33" height="33" fill="white"/>
</clipPath>
</defs>
</svg>
