<svg width="12" height="21" viewBox="0 0 12 21" fill="none" xmlns="http://www.w3.org/2000/svg">
<path d="M11.0929 0.0041873L8.48316 0C5.55121 0 3.65646 1.94395 3.65646 4.95274V7.23628H1.03249C0.805745 7.23628 0.622131 7.4201 0.622131 7.64685V10.9554C0.622131 11.1822 0.805954 11.3658 1.03249 11.3658H3.65646V19.7144C3.65646 19.9412 3.84007 20.1248 4.06681 20.1248H7.49035C7.71709 20.1248 7.9007 19.941 7.9007 19.7144V11.3658H10.9687C11.1955 11.3658 11.3791 11.1822 11.3791 10.9554L11.3804 7.64685C11.3804 7.53798 11.337 7.43371 11.2602 7.35667C11.1833 7.27962 11.0787 7.23628 10.9698 7.23628H7.9007V5.30049C7.9007 4.37008 8.12242 3.89775 9.33444 3.89775L11.0925 3.89712C11.319 3.89712 11.5026 3.7133 11.5026 3.48676V0.414543C11.5026 0.188219 11.3192 0.00460603 11.0929 0.0041873Z" fill="#B8B8B8"/>
</svg>
