<svg width="30" height="32" viewBox="0 0 30 32" fill="none" xmlns="http://www.w3.org/2000/svg">
<path d="M29.1598 17.8847C29.7881 16.9358 30.1018 15.8912 30.1018 14.7502C30.1018 13.4296 29.6152 12.2825 28.6411 11.3073C27.6665 10.333 26.5126 9.84593 25.1795 9.84593H21.7949C22.4101 8.57684 22.7182 7.34594 22.7182 6.15383C22.7182 4.65378 22.4933 3.46161 22.045 2.57698C21.5962 1.69208 20.9422 1.04164 20.0832 0.624779C19.224 0.208125 18.2563 0 17.1795 0C16.5253 0 15.9486 0.237155 15.4487 0.711666C14.8975 1.25003 14.5001 1.9425 14.2566 2.78867C14.0129 3.63458 13.8173 4.44559 13.67 5.22124C13.5227 5.99683 13.2949 6.54489 12.9874 6.86536C12.3591 7.54484 11.6733 8.36555 10.9297 9.32696C9.63484 11.0062 8.75654 11.9999 8.29523 12.3077H3.02624C2.34677 12.3077 1.76658 12.5485 1.2858 13.0288C0.805229 13.5097 0.564774 14.0898 0.564774 14.7693V27.0765C0.564774 27.7561 0.804959 28.336 1.2858 28.8168C1.76685 29.2977 2.34677 29.5383 3.02624 29.5383H8.56418C8.84626 29.5383 9.73069 29.7946 11.2179 30.3074C12.7948 30.8588 14.1826 31.2786 15.3812 31.5671C16.5799 31.8557 17.7946 32 19.0255 32H20.8134H21.5061C23.3136 32 24.7686 31.4837 25.8712 30.4515C26.9735 29.4194 27.5186 28.0124 27.5059 26.2304C28.2751 25.2432 28.6596 24.1022 28.6596 22.8075C28.6596 22.5257 28.6407 22.25 28.602 21.9806C29.089 21.1219 29.3331 20.1988 29.3331 19.2116C29.3329 18.75 29.2753 18.3075 29.1598 17.8847ZM5.12237 26.7114C4.87882 26.9548 4.59041 27.077 4.25707 27.077C3.92367 27.077 3.63519 26.9549 3.39157 26.7114C3.14808 26.468 3.02624 26.1795 3.02624 25.8459C3.02624 25.5126 3.14781 25.2243 3.39157 24.9806C3.63546 24.737 3.92367 24.6152 4.25707 24.6152C4.59041 24.6152 4.87882 24.737 5.12237 24.9806C5.36599 25.2242 5.48784 25.5126 5.48784 25.8459C5.48784 26.1795 5.36599 26.468 5.12237 26.7114ZM27.2278 16.328C26.9521 16.9176 26.6091 17.2189 26.1989 17.2315C26.3911 17.4496 26.5515 17.7543 26.6797 18.145C26.8078 18.5361 26.8715 18.8918 26.8715 19.2124C26.8715 20.0966 26.5322 20.8596 25.8527 21.5004C26.0837 21.9104 26.199 22.353 26.199 22.8271C26.199 23.3014 26.087 23.7726 25.8625 24.2404C25.6384 24.7079 25.3337 25.0445 24.9492 25.2495C25.0133 25.6341 25.045 25.9931 25.045 26.3264C25.045 28.4673 23.8142 29.5377 21.3525 29.5377H19.0263C17.3465 29.5377 15.1546 29.0701 12.4493 28.134C12.3851 28.1084 12.1995 28.0408 11.8916 27.9321C11.5837 27.8233 11.3563 27.7431 11.2088 27.6919C11.0613 27.6403 10.8371 27.5666 10.5356 27.4707C10.2342 27.3743 9.99095 27.3037 9.80491 27.2591C9.61915 27.2143 9.40746 27.1726 9.1705 27.1341C8.93342 27.0957 8.73142 27.0765 8.56479 27.0765H7.94944V14.7698H8.56479C8.76988 14.7698 8.9974 14.7119 9.24742 14.5968C9.49737 14.4814 9.75393 14.3084 10.0167 14.0775C10.2796 13.8467 10.5261 13.6192 10.757 13.3947C10.9879 13.1704 11.2442 12.8884 11.5264 12.5488C11.8084 12.2089 12.0295 11.9366 12.1899 11.7314C12.35 11.5264 12.5519 11.2634 12.7955 10.9429C13.039 10.6225 13.1866 10.4302 13.2378 10.366C13.9428 9.49434 14.4364 8.91105 14.7184 8.61604C15.244 8.06495 15.6254 7.36305 15.8626 6.51047C16.1 5.65777 16.2954 4.85329 16.4487 4.09703C16.6025 3.34071 16.8463 2.79568 17.1801 2.46234C18.4105 2.46234 19.2312 2.76348 19.6413 3.3661C20.0514 3.96859 20.2566 4.89814 20.2566 6.15451C20.2566 6.91083 19.9486 7.9396 19.3331 9.24075C18.7179 10.542 18.4105 11.5645 18.4105 12.308H25.1793C25.821 12.308 26.3912 12.5547 26.891 13.0485C27.3911 13.542 27.6415 14.1156 27.6415 14.7696C27.6413 15.2182 27.5034 15.7376 27.2278 16.328Z" fill="white"/>
</svg>
