<svg width="32" height="32" viewBox="0 0 32 32" fill="none" xmlns="http://www.w3.org/2000/svg">
<path d="M19.2324 29.1463C18.9685 29.212 18.6995 29.2704 18.4325 29.3196C17.7344 29.4494 17.2729 30.1208 17.402 30.8195C17.4658 31.1632 17.661 31.4495 17.9261 31.6364C18.1992 31.8287 18.5469 31.9155 18.9011 31.8496C19.2191 31.7905 19.5396 31.7211 19.8541 31.6427C20.5434 31.4711 20.9634 30.7728 20.7914 30.0838C20.6198 29.3942 19.9221 28.9746 19.2324 29.1463Z" fill="white"/>
<path d="M28.7455 11.9035C28.8356 12.1751 29.0076 12.3968 29.2249 12.55C29.5471 12.7769 29.9687 12.8532 30.3711 12.7202C31.0456 12.4962 31.4111 11.7689 31.1879 11.0947C31.0862 10.7873 30.9734 10.479 30.8533 10.1788C30.5894 9.51917 29.8411 9.198 29.1811 9.46187C28.5218 9.7256 28.2005 10.4741 28.4645 11.134C28.5655 11.3863 28.6601 11.6453 28.7455 11.9035Z" fill="white"/>
<path d="M23.4126 27.3096C23.1856 27.4594 22.9514 27.6044 22.7155 27.7403C22.0999 28.0953 21.8891 28.8822 22.244 29.4975C22.3404 29.6649 22.4687 29.8017 22.6166 29.9062C23.0134 30.1855 23.5523 30.2273 24.001 29.9688C24.2816 29.807 24.5605 29.6349 24.8308 29.4562C25.4233 29.0647 25.5864 28.2666 25.1947 27.6737C24.8031 27.0807 24.0053 26.9178 23.4126 27.3096Z" fill="white"/>
<path d="M31.9878 15.4964C31.9598 14.7864 31.3617 14.2337 30.6515 14.2615C29.9422 14.2895 29.3891 14.8877 29.417 15.5975C29.4276 15.8688 29.4304 16.1442 29.4241 16.4153C29.4141 16.8606 29.6319 17.2575 29.9704 17.4961C30.172 17.638 30.4167 17.724 30.682 17.73C31.392 17.7458 31.9804 17.1826 31.9961 16.4722C32.0032 16.1483 32.0005 15.8201 31.9878 15.4964Z" fill="white"/>
<path d="M28.5355 23.9254C27.9661 23.4983 27.1606 23.6142 26.7342 24.1826C26.5709 24.4002 26.399 24.6152 26.2229 24.8221C25.7627 25.3628 25.8277 26.1749 26.3683 26.6355C26.3992 26.6616 26.4303 26.6856 26.4627 26.7082C27.0002 27.0871 27.7472 27 28.1818 26.49C28.3921 26.2431 28.5971 25.9863 28.7922 25.7264C29.2187 25.158 29.1033 24.352 28.5355 23.9254Z" fill="white"/>
<path d="M30.4265 19.2752C29.7486 19.0626 29.0266 19.44 28.8142 20.1179C28.7329 20.3769 28.6428 20.6371 28.5455 20.892C28.332 21.453 28.5366 22.0703 29.0057 22.4011C29.0918 22.4616 29.1866 22.5128 29.2896 22.5517C29.9533 22.805 30.6965 22.472 30.9495 21.808C31.065 21.505 31.1722 21.1954 31.2691 20.8875C31.4813 20.2095 31.1042 19.4877 30.4265 19.2752Z" fill="white"/>
<path d="M13.6202 29.3312C12.4701 29.1247 11.3668 28.773 10.3206 28.2826C10.3083 28.2761 10.2972 28.2688 10.2842 28.2628C10.0376 28.1468 9.79152 28.0225 9.55296 27.8926C9.55214 27.8917 9.55062 27.891 9.54932 27.8905C9.11162 27.6495 8.68445 27.3828 8.26945 27.0906C2.21807 22.8279 0.76307 14.4366 5.02612 8.38528C5.9531 7.06992 7.07489 5.97255 8.32552 5.1028C8.34092 5.09207 8.35633 5.08141 8.3716 5.07061C12.7786 2.03405 18.7627 1.82941 23.4422 4.94975L22.4372 6.40193C22.1577 6.80612 22.3296 7.10067 22.8188 7.05665L27.1845 6.66579C27.6743 6.62177 27.9672 6.19811 27.8355 5.72512L26.6631 1.50115C26.5319 1.02762 26.1959 0.970936 25.9162 1.37506L24.9088 2.83068C21.4746 0.525399 17.3557 -0.353638 13.2674 0.355287C12.8557 0.426551 12.4497 0.513773 12.0493 0.615304C12.0462 0.615854 12.0437 0.616198 12.0412 0.616749C12.0257 0.620532 12.0101 0.625553 11.995 0.629749C8.46962 1.53506 5.39379 3.59119 3.19898 6.52485C3.18047 6.54679 3.16142 6.56825 3.14395 6.59212C3.07096 6.69042 2.99853 6.79099 2.92761 6.89155C2.81164 7.05637 2.69731 7.22531 2.58794 7.39426C2.57425 7.41462 2.56379 7.43532 2.55182 7.45589C0.740646 10.2625 -0.132957 13.5072 0.0168622 16.8105C0.0172061 16.8214 0.016587 16.8323 0.0168622 16.8435C0.0313763 17.1662 0.0569653 17.4933 0.0917031 17.8154C0.0935604 17.8361 0.0981691 17.8558 0.101677 17.8766C0.137584 18.2004 0.18264 18.5251 0.239115 18.8496C0.813079 22.1609 2.37511 25.1406 4.71575 27.4591C4.72118 27.4645 4.72682 27.4704 4.73232 27.476C4.73425 27.4782 4.73638 27.4793 4.73824 27.4813C5.3671 28.1015 6.05112 28.6752 6.78763 29.1939C8.71506 30.5521 10.8613 31.4498 13.1662 31.8635C13.8656 31.9891 14.5337 31.5236 14.6591 30.8246C14.7845 30.1251 14.3194 29.4564 13.6202 29.3312Z" fill="white"/>
<path d="M15.2106 5.72299C14.6353 5.72299 14.1694 6.18937 14.1694 6.76382V17.1333L23.6531 22.0359C23.8057 22.1149 23.9692 22.1522 24.13 22.1522C24.5067 22.1522 24.8705 21.947 25.0555 21.5891C25.3193 21.0783 25.1197 20.4508 24.6088 20.187L16.2507 15.8659V6.76382C16.2506 6.18937 15.7852 5.72299 15.2106 5.72299Z" fill="white"/>
</svg>
