<svg width="32" height="32" viewBox="0 0 32 32" fill="none" xmlns="http://www.w3.org/2000/svg">
<path d="M29.8276 8.18512H26.8998L26.2272 5.14568C25.9399 3.8473 24.8106 2.94049 23.4808 2.94049H13.3164C11.9867 2.94049 10.8573 3.84724 10.57 5.14562L9.89738 8.18512H9.20263V6.88824C9.20263 6.15743 8.608 5.5628 7.87712 5.5628H3.59138C2.8605 5.5628 2.26588 6.15743 2.26588 6.88824V8.18512H2.17231C0.9745 8.18512 0 9.15962 0 10.3575V25.0704C0 26.2683 0.9745 27.2428 2.17237 27.2428H4.39406H12.2471C14.0205 28.3916 16.1329 29.0595 18.3986 29.0595C20.6643 29.0595 22.7767 28.3916 24.55 27.2428H29.8276C31.0255 27.2428 32 26.2683 32 25.0704V10.3575C32 9.15962 31.0255 8.18512 29.8276 8.18512ZM11.7904 5.41568C11.9501 4.6943 12.5776 4.19043 13.3164 4.19043H23.4807C24.2196 4.19043 24.8471 4.69424 25.0067 5.41568L25.6196 8.18512H24.55C22.7766 7.03637 20.6643 6.36843 18.3986 6.36843C16.1329 6.36843 14.0205 7.03637 12.2471 8.18512H11.1775L11.7904 5.41568ZM3.51588 6.88824C3.51588 6.84662 3.54975 6.8128 3.59138 6.8128H7.87706C7.91869 6.8128 7.95256 6.84668 7.95256 6.88824V8.18512H3.51588V6.88824ZM5.01906 25.9927V19.2042C5.01906 18.859 4.73925 18.5792 4.39406 18.5792C4.04887 18.5792 3.76906 18.859 3.76906 19.2042V25.9928H2.17237C1.66381 25.9928 1.25 25.579 1.25 25.0704V10.3575C1.25 9.84887 1.66381 9.43512 2.17237 9.43512H2.89094H8.57756H10.3991H10.6496C8.43769 11.5067 7.053 14.4515 7.053 17.7139C7.053 20.9764 8.43769 23.9211 10.6496 25.9927H5.01906ZM24.1692 25.9928C23.4242 26.5137 22.606 26.9365 21.7333 27.2428C20.6888 27.6094 19.5667 27.8095 18.3986 27.8095C17.2304 27.8095 16.1082 27.6094 15.0638 27.2428C14.1911 26.9365 13.373 26.5137 12.6279 25.9928C10.0154 24.1662 8.303 21.1366 8.303 17.714C8.303 14.2914 10.0154 11.2617 12.6279 9.43518C13.3729 8.9143 14.1911 8.49149 15.0638 8.18518C16.1083 7.81855 17.2304 7.61849 18.3986 7.61849C19.5667 7.61849 20.6889 7.81862 21.7333 8.18518C22.606 8.49149 23.4241 8.9143 24.1692 9.43518C26.7817 11.2617 28.4941 14.2914 28.4941 17.714C28.4941 21.1366 26.7817 24.1662 24.1692 25.9928ZM30.75 25.0704C30.75 25.579 30.3363 25.9927 29.8276 25.9927H26.1475C28.3594 23.9211 29.7441 20.9764 29.7441 17.7139C29.7441 14.4515 28.3594 11.5067 26.1475 9.43512H26.398H29.8276C30.3363 9.43512 30.75 9.84887 30.75 10.3575V25.0704Z" fill="#E2001A"/>
<path d="M18.3985 9.50838C13.874 9.50838 10.193 13.1894 10.193 17.714C10.193 22.2386 13.874 25.9196 18.3985 25.9196C19.0578 25.9196 19.714 25.8411 20.3489 25.6863C20.6842 25.6044 20.8897 25.2663 20.808 24.931C20.7262 24.5956 20.388 24.39 20.0527 24.4719C19.5147 24.6031 18.9581 24.6696 18.3985 24.6696C14.5632 24.6696 11.443 21.5494 11.443 17.7141C11.443 13.8788 14.5632 10.7584 18.3985 10.7584C22.2339 10.7584 25.3541 13.8787 25.3541 17.7141C25.3541 19.1119 24.9414 20.4598 24.1603 21.6118C23.9666 21.8975 24.0412 22.2862 24.3269 22.4799C24.6124 22.6735 25.0012 22.599 25.195 22.3133C26.1169 20.9534 26.6041 19.3631 26.6041 17.7141C26.6041 13.1894 22.9231 9.50838 18.3985 9.50838Z" fill="#E2001A"/>
<path d="M4.39405 11.5954C3.1108 11.5954 2.06686 12.6394 2.06686 13.9226C2.06686 15.2058 3.11086 16.2498 4.39405 16.2498C5.67724 16.2498 6.72124 15.2058 6.72124 13.9226C6.72124 12.6394 5.67724 11.5954 4.39405 11.5954ZM4.39405 14.9999C3.80011 14.9999 3.31686 14.5166 3.31686 13.9227C3.31686 13.3287 3.80011 12.8455 4.39405 12.8455C4.98799 12.8455 5.47124 13.3287 5.47124 13.9227C5.47124 14.5166 4.98805 14.9999 4.39405 14.9999Z" fill="#E2001A"/>
<path d="M23.4432 23.7419C23.435 23.7025 23.4231 23.6631 23.4075 23.625C23.3919 23.5875 23.3725 23.5512 23.35 23.5175C23.3276 23.4831 23.3013 23.4512 23.2725 23.4225C23.2438 23.3937 23.2113 23.3675 23.1775 23.3444C23.1431 23.3219 23.1069 23.3025 23.0694 23.2869C23.0319 23.2712 22.9926 23.2594 22.9526 23.2512C22.872 23.235 22.7888 23.235 22.7082 23.2512C22.6681 23.2594 22.6288 23.2712 22.5913 23.2869C22.5538 23.3025 22.5176 23.3219 22.4832 23.3444C22.4495 23.3675 22.4176 23.3937 22.3882 23.4225C22.3595 23.4512 22.3332 23.4831 22.3107 23.5175C22.2882 23.5512 22.2688 23.5875 22.2532 23.625C22.2376 23.6631 22.2257 23.7025 22.2176 23.7419C22.2095 23.7825 22.2051 23.8237 22.2051 23.8644C22.2051 23.905 22.2095 23.9462 22.2176 23.9862C22.2257 24.0262 22.2376 24.0656 22.2532 24.1031C22.2688 24.1412 22.2882 24.1775 22.3107 24.2112C22.3332 24.2456 22.3595 24.2775 22.3882 24.3062C22.4176 24.335 22.4494 24.3612 22.4832 24.3837C22.5176 24.4062 22.5538 24.4256 22.5913 24.4412C22.6288 24.4569 22.6681 24.4687 22.7082 24.4769C22.7488 24.485 22.7895 24.4894 22.8301 24.4894C22.8713 24.4894 22.912 24.485 22.9526 24.4769C22.9926 24.4687 23.0319 24.4569 23.0694 24.4412C23.1069 24.4256 23.1432 24.4062 23.1775 24.3837C23.2113 24.3612 23.2438 24.335 23.2725 24.3062C23.3888 24.19 23.4551 24.0287 23.4551 23.8644C23.4551 23.8237 23.4513 23.7825 23.4432 23.7419Z" fill="#E2001A"/>
</svg>
