<svg width="21" height="21" viewBox="0 0 21 21" fill="none" xmlns="http://www.w3.org/2000/svg">
<g clip-path="url(#clip0)">
<path d="M14.0859 0.875H6.53906C3.06624 0.875 0.25 3.69124 0.25 7.16406V14.7109C0.25 18.1838 3.06624 21 6.53906 21H14.0859C17.5588 21 20.375 18.1838 20.375 14.7109V7.16406C20.375 3.69124 17.5588 0.875 14.0859 0.875ZM18.4883 14.7109C18.4883 17.1385 16.5135 19.1133 14.0859 19.1133H6.53906C4.11148 19.1133 2.13672 17.1385 2.13672 14.7109V7.16406C2.13672 4.73648 4.11148 2.76172 6.53906 2.76172H14.0859C16.5135 2.76172 18.4883 4.73648 18.4883 7.16406V14.7109Z" fill="#B8B8B8"/>
<path d="M10.3125 5.90625C7.53399 5.90625 5.28125 8.15899 5.28125 10.9375C5.28125 13.716 7.53399 15.9688 10.3125 15.9688C13.091 15.9688 15.3438 13.716 15.3438 10.9375C15.3438 8.15899 13.091 5.90625 10.3125 5.90625ZM10.3125 14.082C8.57923 14.082 7.16797 12.6708 7.16797 10.9375C7.16797 9.20298 8.57923 7.79297 10.3125 7.79297C12.0458 7.79297 13.457 9.20298 13.457 10.9375C13.457 12.6708 12.0458 14.082 10.3125 14.082Z" fill="#B8B8B8"/>
<path d="M15.7211 6.19946C16.0913 6.19946 16.3915 5.89931 16.3915 5.52905C16.3915 5.1588 16.0913 4.85864 15.7211 4.85864C15.3508 4.85864 15.0507 5.1588 15.0507 5.52905C15.0507 5.89931 15.3508 6.19946 15.7211 6.19946Z" fill="#B8B8B8"/>
</g>
<defs>
<clipPath id="clip0">
<rect width="20.125" height="20.125" fill="white" transform="translate(0.25 0.875)"/>
</clipPath>
</defs>
</svg>
