<svg width="18" height="18" viewBox="0 0 18 18" fill="none" xmlns="http://www.w3.org/2000/svg">
<path d="M13.6849 11.9075C13.0968 11.3269 12.3627 11.3269 11.7783 11.9075C11.3326 12.3495 10.8869 12.7915 10.4486 13.2409C10.3288 13.3645 10.2277 13.3908 10.0816 13.3084C9.79316 13.151 9.48602 13.0237 9.20884 12.8514C7.9166 12.0386 6.83411 10.9936 5.87523 9.81743C5.39954 9.23311 4.97628 8.60759 4.68037 7.90341C4.62044 7.76108 4.63168 7.66744 4.7478 7.55132C5.19353 7.12058 5.62802 6.67859 6.06626 6.23661C6.6768 5.62232 6.6768 4.90316 6.06251 4.28513C5.71417 3.93304 5.36582 3.58845 5.01748 3.23636C4.6579 2.87678 4.30207 2.51345 3.93874 2.15762C3.35068 1.58453 2.61653 1.58453 2.03221 2.16136C1.58274 2.60335 1.15199 3.05657 0.695024 3.49106C0.271768 3.89184 0.0582668 4.38252 0.0133193 4.9556C-0.0578477 5.88826 0.170636 6.76849 0.49276 7.62624C1.15199 9.40167 2.15582 10.9786 3.37315 12.4244C5.01748 14.3796 6.98019 15.9266 9.27626 17.0428C10.3101 17.5447 11.3813 17.9305 12.5462 17.9941C13.3478 18.0391 14.0445 17.8368 14.6025 17.2113C14.9846 16.7843 15.4154 16.3948 15.8199 15.9865C16.4192 15.3797 16.4229 14.6455 15.8274 14.0462C15.1157 13.3308 14.4003 12.6192 13.6849 11.9075Z" fill="white"/>
<path d="M12.9694 8.92199L14.3516 8.68601C14.1343 7.41625 13.535 6.26634 12.6248 5.3524C11.6622 4.38978 10.4449 3.78298 9.10392 3.5957L8.90915 4.98533C9.94669 5.13141 10.8906 5.59962 11.636 6.345C12.3401 7.04917 12.8009 7.94063 12.9694 8.92199Z" fill="white"/>
<path d="M15.1306 2.9141C13.535 1.31846 11.5161 0.310887 9.28745 0L9.09268 1.38963C11.0179 1.65931 12.7634 2.53205 14.1418 3.90669C15.449 5.21392 16.3068 6.86574 16.6177 8.68237L17.9998 8.4464C17.6365 6.34135 16.6439 4.43108 15.1306 2.9141Z" fill="white"/>
</svg>
