<svg width="18" height="18" viewBox="0 0 18 18" fill="none" xmlns="http://www.w3.org/2000/svg">
<path d="M13.6846 11.9074C13.0965 11.3268 12.3624 11.3268 11.7781 11.9074C11.3323 12.3494 10.8866 12.7914 10.4484 13.2408C10.3285 13.3645 10.2274 13.3907 10.0813 13.3083C9.79288 13.1509 9.48574 13.0236 9.20857 12.8513C7.91633 12.0385 6.83384 10.9935 5.87496 9.81734C5.39926 9.23302 4.97601 8.6075 4.6801 7.90332C4.62017 7.76099 4.63141 7.66735 4.74752 7.55123C5.19325 7.12049 5.62774 6.6785 6.06598 6.23652C6.67652 5.62223 6.67652 4.90307 6.06224 4.28504C5.71389 3.93295 5.36555 3.58835 5.01721 3.23627C4.65763 2.87669 4.30179 2.51336 3.93847 2.15752C3.3504 1.58444 2.61626 1.58444 2.03194 2.16127C1.58246 2.60325 1.15172 3.05648 0.694749 3.49097C0.271493 3.89175 0.0579922 4.38243 0.0130446 4.95551C-0.0581224 5.88817 0.170361 6.7684 0.492485 7.62615C1.15172 9.40157 2.15555 10.9785 3.37288 12.4243C5.01721 14.3795 6.97992 15.9265 9.27599 17.0427C10.3098 17.5446 11.381 17.9304 12.5459 17.9941C13.3475 18.039 14.0442 17.8367 14.6023 17.2112C14.9843 16.7842 15.4151 16.3947 15.8196 15.9864C16.4189 15.3796 16.4227 14.6455 15.8271 14.0462C15.1154 13.3307 14.4 12.6191 13.6846 11.9074Z" fill="#444243"/>
<path d="M12.9694 8.92205L14.3516 8.68608C14.1343 7.41631 13.535 6.2664 12.6248 5.35246C11.6622 4.38984 10.4449 3.78305 9.10395 3.59576L8.90918 4.98539C9.94672 5.13147 10.8906 5.59968 11.636 6.34506C12.3402 7.04924 12.8009 7.9407 12.9694 8.92205Z" fill="#444243"/>
<path d="M15.1307 2.9141C13.5351 1.31846 11.5162 0.310887 9.28755 0L9.09277 1.38963C11.018 1.65931 12.7635 2.53205 14.1419 3.90669C15.4491 5.21392 16.3069 6.86574 16.6178 8.68237L17.9999 8.4464C17.6366 6.34135 16.644 4.43108 15.1307 2.9141Z" fill="#444243"/>
</svg>
