<svg width="18" height="18" viewBox="0 0 18 18" fill="none" xmlns="http://www.w3.org/2000/svg">
<path d="M13.6849 11.9074C13.0968 11.3268 12.3627 11.3268 11.7784 11.9074C11.3326 12.3494 10.8869 12.7914 10.4487 13.2408C10.3288 13.3645 10.2277 13.3907 10.0816 13.3083C9.79319 13.1509 9.48605 13.0236 9.20887 12.8513C7.91663 12.0385 6.83414 10.9935 5.87526 9.81734C5.39957 9.23302 4.97631 8.6075 4.68041 7.90332C4.62048 7.76099 4.63171 7.66735 4.74783 7.55123C5.19356 7.12049 5.62805 6.6785 6.06629 6.23652C6.67683 5.62223 6.67683 4.90307 6.06254 4.28504C5.7142 3.93295 5.36586 3.58835 5.01751 3.23627C4.65793 2.87669 4.3021 2.51336 3.93877 2.15752C3.35071 1.58444 2.61656 1.58444 2.03224 2.16127C1.58277 2.60325 1.15202 3.05648 0.695055 3.49097C0.271798 3.89175 0.0582974 4.38243 0.0133498 4.95551C-0.0578172 5.88817 0.170666 6.7684 0.492791 7.62615C1.15202 9.40157 2.15585 10.9785 3.37318 12.4243C5.01751 14.3795 6.98022 15.9265 9.27629 17.0427C10.3101 17.5446 11.3813 17.9304 12.5462 17.9941C13.3478 18.039 14.0445 17.8367 14.6026 17.2112C14.9846 16.7842 15.4154 16.3947 15.8199 15.9864C16.4192 15.3796 16.423 14.6455 15.8274 14.0462C15.1157 13.3307 14.4003 12.6191 13.6849 11.9074Z" fill="#444243"/>
<path d="M12.9694 8.92205L14.3516 8.68608C14.1343 7.41631 13.535 6.2664 12.6248 5.35246C11.6622 4.38984 10.4449 3.78305 9.10395 3.59576L8.90918 4.98539C9.94672 5.13147 10.8906 5.59968 11.636 6.34506C12.3402 7.04924 12.8009 7.9407 12.9694 8.92205Z" fill="#444243"/>
<path d="M15.1307 2.9141C13.535 1.31846 11.5161 0.310887 9.28749 0L9.09271 1.38963C11.018 1.65931 12.7634 2.53205 14.1418 3.90669C15.4491 5.21392 16.3068 6.86574 16.6177 8.68237L17.9998 8.4464C17.6365 6.34135 16.6439 4.43108 15.1307 2.9141Z" fill="#444243"/>
</svg>
