<svg width="32" height="32" viewBox="0 0 32 32" fill="none" xmlns="http://www.w3.org/2000/svg">
<g clip-path="url(#clip0)">
<path d="M29.5833 2.13245H5.66668C4.5181 2.13245 3.58697 3.06357 3.58697 4.21215V20.8498H0.987342C0.700212 20.8498 0.467415 21.0826 0.467415 21.3697C0.467415 22.5183 1.39854 23.4494 2.54712 23.4494H17.625V29.6886C17.6251 29.9757 17.8579 30.2084 18.1451 30.2084C18.2829 30.2084 18.415 30.1536 18.5125 30.0561L21.2645 27.3042L24.0165 30.0561C24.1139 30.1536 24.2461 30.2085 24.384 30.2085C24.4524 30.2087 24.5201 30.1953 24.5832 30.169C24.7774 30.0884 24.904 29.8988 24.904 29.6886V23.4494H26.4637C27.6123 23.4494 28.5435 22.5183 28.5435 21.3697V4.73208H31.1431C31.4302 4.73208 31.663 4.49928 31.663 4.21215C31.663 3.06357 30.7319 2.13245 29.5833 2.13245ZM27.5036 4.21215V20.8498H25.4239V21.8897H27.3637C27.1781 22.2112 26.835 22.4094 26.4637 22.4096H24.904V21.8897H23.8641V28.4335L21.6321 26.2014C21.429 25.9984 21.0999 25.9984 20.8969 26.2014L18.6648 28.4335V21.8897H17.625V22.4096H2.54712C2.17583 22.4094 1.83281 22.2112 1.64713 21.8897H4.1069H17.1051V20.8498H4.62683V4.21215C4.62683 3.63783 5.09236 3.1723 5.66668 3.1723H27.7927C27.6056 3.48705 27.5057 3.84599 27.5036 4.21215ZM28.6833 3.69223C28.971 3.19518 29.6071 3.02542 30.1042 3.31313C30.2616 3.40419 30.3922 3.53495 30.4833 3.69223H28.6833Z" fill="#E2001A"/>
<path d="M26.1658 18.4035L25.4998 17.2103L26.1684 16.0181C26.3093 15.7679 26.2207 15.4508 25.9706 15.3099C25.958 15.3028 25.9451 15.2962 25.9319 15.2902L24.6908 14.7219L24.5307 13.3649C24.4968 13.0798 24.2381 12.8761 23.953 12.91C23.9398 12.9115 23.9266 12.9136 23.9135 12.9162L22.5731 13.1819L21.6461 12.1779C21.4386 11.9671 21.0995 11.9645 20.8888 12.172C20.8868 12.1739 20.8848 12.1759 20.8829 12.1779L19.9558 13.1819L18.6155 12.9162C18.3338 12.8605 18.0602 13.0437 18.0045 13.3254C18.0019 13.3384 17.9999 13.3516 17.9983 13.3649L17.8382 14.7219L16.5971 15.2912C16.336 15.4107 16.2213 15.7193 16.3408 15.9804C16.3468 15.9936 16.3534 16.0065 16.3605 16.0191L17.0292 17.2103L16.3605 18.4024C16.2196 18.6527 16.3082 18.9697 16.5584 19.1106C16.571 19.1177 16.5839 19.1243 16.5971 19.1303L17.8382 19.6997L17.9983 21.0577C18.0322 21.3428 18.2908 21.5465 18.5759 21.5126C18.5892 21.5111 18.6024 21.509 18.6155 21.5064L19.9558 21.2407L20.8829 22.2447C21.0779 22.4555 21.4068 22.4682 21.6176 22.2732C21.6275 22.2641 21.6369 22.2546 21.6461 22.2447L22.5731 21.2407L23.9135 21.5064C24.0556 21.5355 24.2033 21.503 24.3201 21.417C24.4363 21.3313 24.5116 21.2011 24.5281 21.0577L24.6882 19.7007L25.9293 19.1314C26.1903 19.0119 26.3051 18.7033 26.1856 18.4422C26.1795 18.429 26.1729 18.4161 26.1658 18.4035ZM24.4506 17.464L24.9856 18.4186L23.9915 18.8745C23.8267 18.9502 23.7132 19.1062 23.692 19.2863L23.5641 20.3745L22.4894 20.1619C22.3123 20.1251 22.129 20.1844 22.0069 20.3179L21.2645 21.1227L20.522 20.3189C20.4236 20.2125 20.2853 20.152 20.1404 20.152C20.1065 20.1518 20.0727 20.1553 20.0395 20.1624L18.9648 20.375L18.8369 19.2868C18.8158 19.1068 18.7023 18.9507 18.5375 18.8751L17.5434 18.4191L18.0784 17.4645C18.1678 17.3059 18.1699 17.1134 18.0784 16.956V16.9581L17.5434 16.0035L18.5375 15.5475C18.7023 15.4719 18.8158 15.3158 18.8369 15.1358L18.9648 14.0475L20.0395 14.2602C20.2166 14.2965 20.3997 14.2373 20.522 14.1042L21.2645 13.2978L22.0069 14.1016C22.1289 14.2352 22.3123 14.2944 22.4894 14.2576L23.5641 14.0449L23.692 15.1332C23.7132 15.3132 23.8267 15.4693 23.9915 15.5449L24.9856 16.0009L24.4506 16.9555C24.3621 17.1134 24.3621 17.3061 24.4506 17.464Z" fill="#E2001A"/>
<path d="M21.2645 14.6106C19.8288 14.6106 18.6648 15.7745 18.6648 17.2102C18.6665 18.6452 19.8295 19.8081 21.2645 19.8099C22.7002 19.8099 23.8641 18.6459 23.8641 17.2102C23.8641 15.7745 22.7002 14.6106 21.2645 14.6106ZM21.2645 18.77C20.403 18.77 19.7047 18.0717 19.7047 17.2102C19.7047 16.3488 20.403 15.6504 21.2645 15.6504C22.1259 15.6504 22.8243 16.3488 22.8243 17.2102C22.8243 18.0717 22.1259 18.77 21.2645 18.77Z" fill="#E2001A"/>
<path d="M20.2246 5.25195H11.9058V6.29181H20.2246V5.25195Z" fill="#E2001A"/>
<path d="M25.4239 8.37158H6.70654V9.41144H25.4239V8.37158Z" fill="#E2001A"/>
<path d="M25.4239 10.4513H6.70654V11.4911H25.4239V10.4513Z" fill="#E2001A"/>
<path d="M13.9855 17.2103H7.22646V18.2502H13.9855V17.2103Z" fill="#E2001A"/>
</g>
<defs>
<clipPath id="clip0">
<rect width="31.1956" height="31.1956" fill="white" transform="translate(0.467415 0.572632)"/>
</clipPath>
</defs>
</svg>
