<svg width="32" height="32" viewBox="0 0 32 32" fill="none" xmlns="http://www.w3.org/2000/svg">
<g clip-path="url(#clip0)">
<path d="M18.9877 10.6869H15.3319V14.3426H18.9877C19.993 14.3426 20.8155 13.5201 20.8155 12.5148C20.8155 11.5094 19.993 10.6869 18.9877 10.6869Z" fill="#E2001A"/>
<path d="M16.2459 0.572632C7.67322 0.572632 0.648071 7.59778 0.648071 16.1704C0.648071 24.7431 7.67322 31.7682 16.2459 31.7682C24.8185 31.7682 31.8437 24.7431 31.8437 16.1704C31.8437 7.59778 24.8185 0.572632 16.2459 0.572632ZM25.9671 25.8917C23.3562 28.5026 19.9037 29.9404 16.2459 29.9404C12.588 29.9404 9.13552 28.5026 6.52462 25.8917C3.91372 23.2808 2.47594 19.8283 2.47594 16.1704C2.47594 12.5126 3.91372 9.06008 6.52462 6.44918C9.13552 3.83828 12.588 2.4005 16.2459 2.4005C19.9037 2.4005 23.3562 3.83828 25.9671 6.44918C28.578 9.06008 30.0158 12.5126 30.0158 16.1704C30.0158 19.8283 28.578 23.2808 25.9671 25.8917Z" fill="#E2001A"/>
<path d="M24.6745 7.7418C22.409 5.47625 19.4156 4.22839 16.2459 4.22839C13.0761 4.22839 10.0828 5.47625 7.81721 7.7418C5.55166 10.0074 4.3038 13.0007 4.3038 16.1705C4.3038 19.3402 5.55166 22.3336 7.81721 24.5991C10.0828 26.8647 13.0761 28.1125 16.2459 28.1125C19.4156 28.1125 22.409 26.8647 24.6745 24.5991C26.9403 22.3336 28.1879 19.3402 28.1879 16.1705C28.1879 13.0007 26.9403 10.0074 24.6745 7.7418ZM18.9877 16.1705H15.3319V17.9983H19.9016V19.8262H15.3319V23.4819H13.5041V19.8262H11.6762V17.9983H13.5041V16.1705H11.6762V14.3426H13.5041V8.85899H18.9877C20.9983 8.85899 22.6434 10.5041 22.6434 12.5147C22.6434 14.5254 20.9983 16.1705 18.9877 16.1705Z" fill="#E2001A"/>
</g>
<defs>
<clipPath id="clip0">
<rect width="31.1956" height="31.1956" fill="white" transform="translate(0.648071 0.572632)"/>
</clipPath>
</defs>
</svg>
