<svg width="26" height="32" viewBox="0 0 26 32" fill="none" xmlns="http://www.w3.org/2000/svg">
<path d="M13.3014 2.57785H12.6151C12.2484 2.57785 11.9511 2.28053 11.9511 1.91387V1.89155C11.9511 1.03994 11.2608 0.349609 10.4091 0.349609H10.3735C9.52191 0.349609 8.83158 1.03994 8.83158 1.89155V1.91387C8.83158 2.28058 8.53425 2.5779 8.1676 2.5779H7.4813C6.75029 2.5779 6.15773 3.17047 6.15773 3.90147V3.92823C6.15773 4.65924 6.75029 5.2518 7.4813 5.2518H13.3016C14.0325 5.2518 14.6251 4.65919 14.6251 3.92823V3.90142C14.625 3.17047 14.0325 2.57785 13.3014 2.57785ZM10.3913 2.57785C10.0221 2.57785 9.72284 2.27854 9.72284 1.90939C9.72284 1.54019 10.0222 1.24088 10.3913 1.24088C10.7605 1.24088 11.0598 1.54019 11.0598 1.90939C11.0598 2.27859 10.7605 2.57785 10.3913 2.57785ZM13.3674 28.4256H2.14675C1.16225 28.4256 0.364166 27.6276 0.364166 26.6431V5.25175C0.364166 4.26726 1.16225 3.46917 1.70109 3.46917H5.31274C5.28262 3.6172 5.26636 3.77062 5.26636 3.92834C5.26636 5.14955 6.25993 6.14312 7.48135 6.14312H13.3014C14.5228 6.14312 15.5163 5.14955 15.5163 3.90137C15.5163 3.7534 15.5004 3.60914 15.4727 3.46917H18.1902C19.6205 3.46917 20.4185 4.26726 20.4185 5.25175V18.6438C20.2704 18.6346 20.1233 18.6213 19.9729 18.6213C19.3564 18.6213 18.7612 18.7082 18.1902 18.856V8.37131H2.59241V26.1974H12.8649C12.9138 26.9807 13.0849 27.7305 13.3674 28.4256ZM19.9728 19.9583C16.7732 19.9583 14.1794 22.5522 14.1794 25.7517C14.1794 28.9513 16.7731 31.5452 19.9728 31.5452C23.1725 31.5452 25.7662 28.9513 25.7662 25.7517C25.7662 22.5522 23.1725 19.9583 19.9728 19.9583ZM23.7585 24.5614L20.1932 28.5723C20.0176 28.7699 19.773 28.8713 19.5267 28.8713C19.3311 28.8713 19.1344 28.8073 18.9703 28.6759L16.742 26.8933C16.3577 26.586 16.2953 26.025 16.603 25.6407C16.9102 25.256 17.4714 25.1937 17.8557 25.5015L19.423 26.7554L22.4262 23.3769C22.7528 23.0091 23.3164 22.9756 23.6844 23.3029C24.0525 23.6301 24.0855 24.1933 23.7585 24.5614ZM15.962 15.9474H8.83158C8.58543 15.9474 8.38592 15.7478 8.38592 15.5017V15.0561C8.38592 14.8099 8.58543 14.6104 8.83158 14.6104H15.962C16.2081 14.6104 16.4077 14.81 16.4077 15.0561V15.5017C16.4076 15.7478 16.2081 15.9474 15.962 15.9474ZM15.962 11.9365H8.83158C8.58543 11.9365 8.38592 11.737 8.38592 11.4909V11.0452C8.38592 10.7991 8.58543 10.5996 8.83158 10.5996H15.962C16.2081 10.5996 16.4077 10.7991 16.4077 11.0452V11.4909C16.4076 11.737 16.2081 11.9365 15.962 11.9365ZM13.7337 19.5126H8.83158C8.58543 19.5126 8.38592 19.3131 8.38592 19.067V18.6213C8.38592 18.3752 8.58543 18.1757 8.83158 18.1757H13.7337C13.9799 18.1757 14.1794 18.3752 14.1794 18.6213V19.067C14.1793 19.3131 13.9799 19.5126 13.7337 19.5126ZM12.8424 23.5235H8.83152C8.58537 23.5235 8.38587 23.3239 8.38587 23.0778V22.6322C8.38587 22.386 8.58537 22.1865 8.83152 22.1865H12.8424C13.0885 22.1865 13.2881 22.386 13.2881 22.6322V23.0778C13.2881 23.3239 13.0885 23.5235 12.8424 23.5235ZM7.53263 10.2884L5.89134 12.1349C5.8105 12.2259 5.6979 12.2725 5.58448 12.2725C5.49441 12.2725 5.40388 12.2431 5.32834 12.1826L4.30251 11.362C4.12558 11.2205 4.09688 10.9623 4.23848 10.7854C4.37988 10.6082 4.63832 10.5796 4.8152 10.7212L5.53672 11.2984L6.91927 9.74305C7.06964 9.57377 7.32909 9.55833 7.49847 9.709C7.66801 9.85968 7.6832 10.1189 7.53263 10.2884ZM7.53263 14.2534L5.89134 16.0998C5.8105 16.1908 5.6979 16.2374 5.58448 16.2374C5.49441 16.2374 5.40388 16.208 5.32834 16.1475L4.30251 15.3269C4.12558 15.1854 4.09688 14.9272 4.23848 14.7503C4.37988 14.5731 4.63832 14.5445 4.8152 14.6861L5.53672 15.2633L6.91927 13.708C7.06964 13.5387 7.32909 13.5233 7.49847 13.674C7.66801 13.8246 7.6832 14.0839 7.53263 14.2534ZM7.53263 18.0453L5.89134 19.8917C5.8105 19.9827 5.6979 20.0293 5.58448 20.0293C5.49441 20.0293 5.40388 19.9999 5.32834 19.9394L4.30251 19.1187C4.12558 18.9773 4.09688 18.719 4.23848 18.5421C4.37988 18.365 4.63832 18.3363 4.8152 18.478L5.53672 19.0551L6.91927 17.4998C7.06964 17.3305 7.32909 17.3151 7.49847 17.4657C7.66801 17.6165 7.6832 17.8758 7.53263 18.0453ZM7.53263 21.8639L5.89134 23.7103C5.8105 23.8013 5.6979 23.8479 5.58448 23.8479C5.49441 23.8479 5.40388 23.8185 5.32834 23.758L4.30251 22.9373C4.12558 22.7959 4.09688 22.5376 4.23848 22.3607C4.37988 22.1836 4.63832 22.1549 4.8152 22.2966L5.53672 22.8737L6.91927 21.3184C7.06964 21.1491 7.32909 21.1337 7.49847 21.2844C7.66801 21.4351 7.6832 21.6944 7.53263 21.8639Z" fill="#E2001A"/>
</svg>
