<svg width="32" height="32" viewBox="0 0 32 32" fill="none" xmlns="http://www.w3.org/2000/svg">
<path d="M1.11974 31.7682H17.6924C18.1972 31.7682 18.6063 31.359 18.6063 30.8542V29.8794C18.6063 28.8698 17.7881 28.0515 16.7785 28.0515V26.9588C16.7785 25.512 15.6013 24.3348 14.1545 24.3348H4.65767C3.21084 24.3348 2.03368 25.512 2.03368 26.9588V28.0515C1.02407 28.0515 0.205811 28.8698 0.205811 29.8794V30.8542C0.205811 31.3588 0.615177 31.7682 1.11974 31.7682Z" fill="#E2001A"/>
<path d="M11.6443 20.7001C12.2516 21.5062 13.3979 21.6673 14.204 21.0597C15.0103 20.4523 15.1712 19.3061 14.5639 18.4997L9.06359 11.2009C8.45597 10.3945 7.30998 10.2336 6.50386 10.841C5.69751 11.4486 5.53638 12.5946 6.144 13.401L11.6443 20.7001Z" fill="#E2001A"/>
<path d="M24.7823 10.7993C25.3899 11.6054 26.5359 11.7665 27.3423 11.1589C28.1484 10.5515 28.3095 9.40555 27.7019 8.59919L22.2016 1.30034C21.5942 0.493983 20.448 0.332855 19.6419 0.940478C18.8358 1.5481 18.6746 2.69409 19.2823 3.50044L24.7823 10.7993Z" fill="#E2001A"/>
<path d="M20.7731 16.1095C22.124 15.0915 23.1382 13.8275 23.7724 12.4966L17.3725 4.00366C15.9183 4.24666 14.4239 4.87285 13.0727 5.89103C11.7218 6.90897 10.7077 8.17301 10.0734 9.50369L16.4733 17.9971C17.9275 17.7541 19.422 17.1277 20.7731 16.1095Z" fill="#E2001A"/>
<path d="M23.241 16.3475C22.8154 16.7812 22.3673 17.197 21.8732 17.5694C21.3788 17.9417 20.8555 18.258 20.3216 18.5476L21.5133 20.1292L24.4329 17.9293L23.241 16.3475Z" fill="#E2001A"/>
<path d="M25.533 19.3889L22.6134 21.5888L28.1136 28.8879C28.7213 29.6942 29.8673 29.8551 30.6734 29.2477C31.4797 28.6401 31.6406 27.4941 31.0332 26.6878L25.533 19.3889Z" fill="#E2001A"/>
</svg>
