<svg width="32" height="31" viewBox="0 0 32 31" fill="none" xmlns="http://www.w3.org/2000/svg">
<path d="M7.49587 6.67493L19.9321 3.28037L19.2735 1.94917C18.8426 1.08389 17.7916 0.726571 16.9264 1.15746L5.79333 6.67493H7.49587Z" fill="#E2001A"/>
<path d="M23.7925 3.37842C23.6384 3.37842 23.4843 3.39944 23.3301 3.44147L20.4085 4.24019L11.486 6.67488H21.6136H26.0276L25.4811 4.67108C25.2709 3.88988 24.5632 3.37842 23.7925 3.37842Z" fill="#E2001A"/>
<path d="M27.8527 7.901H27.4534H26.9104H26.3674H22.2231H6.99493H4.99813H3.31661H3.00483H1.96089C1.40739 7.901 0.913448 8.15673 0.591158 8.55959C0.444025 8.74526 0.331924 8.95895 0.268867 9.19367C0.230333 9.3408 0.205811 9.49494 0.205811 9.65258V9.86277V11.8596V29.1687C0.205811 30.1356 0.990517 30.9202 1.95739 30.9202H27.8492C28.8161 30.9202 29.6008 30.1356 29.6008 29.1687V24.2818H19.2069C17.5639 24.2818 16.2292 22.9471 16.2292 21.3041V19.6996V19.1566V18.6136V17.4086C16.2292 16.6028 16.5515 15.8707 17.0735 15.3347C17.5359 14.8583 18.156 14.536 18.8496 14.4554C18.9652 14.4414 19.0843 14.4344 19.2034 14.4344H28.1435H28.6865H29.2295H29.6008V9.65258C29.6043 8.68571 28.8196 7.901 27.8527 7.901Z" fill="#E2001A"/>
<path d="M30.8304 16.1089C30.6552 15.9478 30.4486 15.8251 30.2173 15.7446C30.0386 15.6851 29.8495 15.65 29.6498 15.65H29.6043H29.5693H29.0263H27.068H19.2069C18.24 15.65 17.4553 16.4347 17.4553 17.4016V18.2739V18.8168V19.3598V21.3006C17.4553 22.2675 18.24 23.0522 19.2069 23.0522H29.6043H29.6498C29.8495 23.0522 30.0387 23.0171 30.2173 22.9576C30.4486 22.8805 30.6552 22.7544 30.8304 22.5932C31.1807 22.2745 31.4014 21.812 31.4014 21.3006V17.4016C31.4014 16.8901 31.1807 16.4277 30.8304 16.1089ZM22.8642 19.6996C22.8642 20.1831 22.4719 20.5754 21.9884 20.5754H21.4069C20.9235 20.5754 20.5311 20.1831 20.5311 19.6996V19.1181C20.5311 18.8379 20.6607 18.5891 20.8674 18.4315C21.018 18.3159 21.2037 18.2423 21.4069 18.2423H21.554H21.9884C22.4719 18.2423 22.8642 18.6346 22.8642 19.1181V19.6996Z" fill="#E2001A"/>
</svg>
