<svg width="32" height="24" viewBox="0 0 32 24" fill="none" xmlns="http://www.w3.org/2000/svg">
<path d="M31.8437 3.44252V12.8858C31.8437 12.8858 29.8226 13.2839 29.4062 13.3363C28.9912 13.3885 27.6869 13.8097 26.7416 12.9011C25.2839 11.504 20.1046 6.35323 20.1046 6.35323C20.1046 6.35323 19.2115 5.47694 17.7776 6.23426C16.4614 6.92802 14.5102 7.94472 13.6953 8.34063C12.1546 9.16064 10.8777 7.85962 10.8777 6.8686C10.8777 6.09988 11.3574 5.57815 12.0431 5.19446C13.9014 4.06792 17.8182 1.8694 19.4495 1.00262C20.4411 0.475231 21.1556 0.430038 22.5169 1.57691C24.1936 2.98701 25.6857 4.27235 25.6857 4.27235C25.6857 4.27235 26.1724 4.67852 26.9485 4.51493C28.8544 4.11198 31.8437 3.44252 31.8437 3.44252ZM11.2286 19.4432C11.4794 18.7987 11.3955 18.078 10.9147 17.5835C10.4826 17.1412 9.85169 17.0247 9.25015 17.1625C9.41839 16.5659 9.32549 15.9308 8.89106 15.4827C8.45764 15.0415 7.82797 14.9226 7.22649 15.0617C7.39347 14.466 7.30082 13.831 6.86614 13.3842C6.18549 12.686 5.00815 12.716 4.23471 13.4532C3.46537 14.1915 2.97253 15.529 3.65917 16.3163C4.34467 17.0996 5.13233 16.623 5.7328 16.4862C5.56575 17.0819 5.06524 17.6361 5.68163 18.4159C6.29746 19.196 7.15473 18.7227 7.75583 18.5871C7.58822 19.1806 7.10954 19.7904 7.70227 20.5134C8.30035 21.2386 9.27992 20.8522 9.9269 20.6513C9.67721 21.2932 9.14277 21.9852 9.82941 22.7607C10.515 23.5417 12.0993 23.1804 12.8732 22.442C13.645 21.7037 13.7191 20.5337 13.0402 19.8333C12.5716 19.3528 11.8729 19.241 11.2286 19.4432ZM25.3493 14.5303C19.755 8.93588 22.3863 11.5683 19.3757 8.55124C19.3757 8.55124 18.4709 7.65047 17.2784 8.17371C16.4412 8.54053 15.3635 9.04049 14.5525 9.42217C13.6614 9.88945 13.0201 10.0341 12.719 10.0321C10.9962 10.0208 9.59853 8.63614 9.59853 6.91511C9.59853 5.79864 10.1913 4.82662 11.0753 4.27487C12.3184 3.41464 15.1798 1.89269 15.1798 1.89269C15.1798 1.89269 14.3081 0.788118 12.3985 0.788118C10.4895 0.788118 6.50114 3.40098 6.50114 3.40098C6.50114 3.40098 5.36969 4.1257 3.75679 3.47292L0.648071 2.39038V13.1961C0.648071 13.1961 1.53575 13.4531 2.33335 13.7788C2.51349 13.2651 2.80416 12.7907 3.20737 12.3989C4.53061 11.1385 6.72389 11.1255 7.92779 12.3651C8.29047 12.7419 8.54356 13.1915 8.67271 13.6884C9.15781 13.8381 9.59721 14.1034 9.95032 14.4672C10.3141 14.8415 10.5662 15.2936 10.6964 15.788C11.181 15.9378 11.6197 16.2041 11.974 16.5681C12.373 16.9796 12.6388 17.4766 12.763 18.0151C13.2695 18.1626 13.7272 18.4371 14.0958 18.814C14.8193 19.5571 15.0762 20.5654 14.9206 21.538C14.9218 21.538 14.9242 21.538 14.9253 21.5402C14.9372 21.5557 15.3736 22.0422 15.6458 22.3167C16.1792 22.8505 17.0501 22.8505 17.5851 22.3167C18.1166 21.783 18.1189 20.9137 17.5851 20.3773C17.566 20.3583 15.6608 18.3655 15.8142 18.211C15.9663 18.0575 18.3936 20.5832 18.4388 20.6294C18.9715 21.1622 19.8418 21.1622 20.3769 20.6294C20.9107 20.0957 20.9096 19.2264 20.3769 18.6913C20.3507 18.6664 20.2415 18.5617 20.2009 18.52C20.2009 18.52 17.7944 16.3762 17.9775 16.1931C18.163 16.0088 21.1522 18.7984 21.1571 18.7984C21.6944 19.2823 22.5221 19.2787 23.039 18.7615C23.542 18.2586 23.5528 17.4631 23.1069 16.927C23.0975 16.8985 20.8288 14.5275 21.0058 14.3492C21.1855 14.1685 23.4303 16.48 23.435 16.4847C23.9665 17.0174 24.8381 17.0174 25.3731 16.4847C25.9058 15.952 25.9058 15.0817 25.3731 14.5442C25.3659 14.5397 25.3564 14.5349 25.3493 14.5303Z" fill="#E2001A"/>
</svg>
