<svg width="21" height="12" viewBox="0 0 21 12" fill="none" xmlns="http://www.w3.org/2000/svg">
<path d="M20.0704 10.438C20.0163 10.3475 19.6817 9.62039 18.0716 8.12599C16.386 6.56116 16.6124 6.81525 18.6427 4.1095C19.8792 2.46164 20.3736 1.45532 20.2189 1.02511C20.0717 0.615034 19.1622 0.723214 19.1622 0.723214L16.1382 0.740825C16.1382 0.740825 15.9143 0.710635 15.747 0.81001C15.5847 0.908126 15.4803 1.13455 15.4803 1.13455C15.4803 1.13455 15.0011 2.41007 14.362 3.49438C13.0148 5.78251 12.4752 5.90327 12.255 5.76113C11.7431 5.4303 11.8714 4.43026 11.8714 3.7208C11.8714 1.50312 12.2072 0.578555 11.216 0.339553C10.8864 0.260305 10.6449 0.207473 9.80338 0.198667C8.72409 0.187346 7.80959 0.202441 7.29259 0.45528C6.94793 0.62384 6.68251 0.999954 6.84478 1.02134C7.04479 1.04775 7.49763 1.14336 7.73789 1.47041C8.0486 1.89181 8.03727 2.84027 8.03727 2.84027C8.03727 2.84027 8.2159 5.45043 7.62091 5.77497C7.21209 5.99761 6.65232 5.54351 5.45102 3.46671C4.8359 2.40378 4.37047 1.22764 4.37047 1.22764C4.37047 1.22764 4.28116 1.00876 4.12141 0.891774C3.92769 0.74963 3.65598 0.704346 3.65598 0.704346L0.780407 0.721956C0.780407 0.721956 0.348944 0.734536 0.190448 0.921964C0.0495622 1.08927 0.179127 1.43393 0.179127 1.43393C0.179127 1.43393 2.43078 6.70078 4.9793 9.35622C7.31775 11.7903 9.97194 11.6305 9.97194 11.6305H11.1745C11.1745 11.6305 11.538 11.5903 11.7229 11.3903C11.894 11.2066 11.8877 10.8619 11.8877 10.8619C11.8877 10.8619 11.8638 9.24804 12.6135 9.0103C13.3519 8.77633 14.3004 10.5701 15.3055 11.2607C16.0652 11.7827 16.6426 11.6683 16.6426 11.6683L19.3308 11.6305C19.3308 11.6305 20.7371 11.5437 20.0704 10.438Z" fill="#B8B8B8"/>
</svg>
