<svg width="48" height="46" viewBox="0 0 48 46" fill="none" xmlns="http://www.w3.org/2000/svg">
<path d="M47.0038 8.17282L41.7565 1.58962C41.2609 0.967742 40.5089 0.605469 39.7136 0.605469H12.5927C11.7975 0.605469 11.0456 0.967742 10.5499 1.58954L5.30264 8.17282C4.75449 8.86058 4.30594 10.1428 4.30594 11.1108V15.9329C4.72272 15.2773 5.3319 14.7851 6.06241 14.5333C6.10327 13.9823 6.27033 13.4479 6.55605 12.9612C7.05103 12.1181 7.84507 11.5185 8.7915 11.2723C9.13079 11.1837 9.44146 11.1436 9.75205 11.1436C11.0034 11.1436 12.1374 11.7801 12.8014 12.7801C12.9991 12.7457 13.1986 12.7278 13.3989 12.7278C14.0134 12.7278 14.594 12.8967 15.0998 13.1879L18.0064 12.4319C18.3706 12.3368 18.7449 12.289 19.12 12.289C21.1302 12.289 22.8874 13.6488 23.3938 15.596L29.0901 37.4889C29.3872 38.6311 29.2214 39.8206 28.6244 40.8385C28.0268 41.8565 27.0682 42.5803 25.9259 42.8776L23.3837 43.5388H44.735C46.5385 43.5388 48.0005 42.0768 48.0005 40.2733L48.0005 11.0224C48.0005 10.1428 47.552 8.86058 47.0038 8.17282ZM7.01739 8.11713L8.75511 5.93698H20.6112L21.7812 4.01338H10.2884L11.5713 2.40382C11.8206 2.09111 12.1929 1.91174 12.5927 1.91174H39.7136C40.1136 1.91174 40.4859 2.09111 40.7351 2.40382L42.018 4.01338H30.3205L30.9736 5.93698H43.5513L45.2889 8.11713H7.01739ZM7.54742 16.1609L6.81448 16.3515C6.03386 16.5547 5.56562 17.3522 5.76868 18.1328L5.77613 18.1613C5.97927 18.942 6.77676 19.4102 7.55746 19.2071L13.7733 17.59C14.554 17.387 15.0222 16.5895 14.8191 15.8087L14.8116 15.7802C14.6085 14.9995 13.811 14.5313 13.0304 14.7344L12.2975 14.925C11.9058 15.0269 11.5057 14.792 11.4038 14.4004L11.3975 14.3766C11.1609 13.4671 10.2319 12.9216 9.3224 13.1582L9.28436 13.1681C8.37487 13.4047 7.82946 14.3337 8.06601 15.2432L8.07229 15.2671C8.17401 15.6589 7.93911 16.059 7.54742 16.1609ZM9.55095 14.1153C9.94522 14.0127 10.348 14.2493 10.4506 14.6435C10.5531 15.0377 10.3167 15.4406 9.92232 15.5431C9.52805 15.6456 9.1253 15.4091 9.02272 15.0149C8.92021 14.6206 9.15668 14.2178 9.55095 14.1153ZM18.7116 36.6317C18.78 36.8946 18.6223 37.1631 18.3595 37.2315L9.31644 39.5839C9.05362 39.6523 8.78507 39.4946 8.71668 39.2318L8.59283 38.7559C8.52444 38.493 8.68209 38.2245 8.94499 38.1562L17.988 35.8037C18.2509 35.7353 18.5193 35.893 18.5877 36.1558L18.7116 36.6317ZM19.8145 27.198L19.9383 27.6739C20.0067 27.9368 19.8491 28.2053 19.5861 28.2736L7.21158 31.493C6.94868 31.5614 6.68021 31.4036 6.61182 31.1409L6.48797 30.6649C6.41958 30.402 6.57723 30.1335 6.84013 30.0652L19.2147 26.846C19.4776 26.7775 19.7461 26.9351 19.8145 27.198ZM18.4718 23.9903L6.09723 27.2095C5.83433 27.2778 5.56586 27.1201 5.49747 26.8573L5.37362 26.3814C5.30523 26.1185 5.46288 25.8501 5.72578 25.7817L18.1003 22.5625C18.3632 22.4941 18.6317 22.6518 18.7001 22.9146L18.824 23.3906C18.8923 23.6533 18.7347 23.9219 18.4718 23.9903ZM18.197 32.7003L8.20209 35.3005C7.93919 35.3688 7.67072 35.2112 7.60233 34.9483L7.47848 34.4724C7.41009 34.2095 7.56774 33.941 7.83064 33.8727L17.8254 31.2727C18.0883 31.2042 18.3568 31.3619 18.4252 31.6247L18.5491 32.1007C18.6175 32.3635 18.4599 32.632 18.197 32.7003ZM27.1934 37.9823L21.4978 16.0888C21.156 14.7745 19.8133 13.9863 18.499 14.3282L15.5967 15.0832C15.6654 15.225 15.7223 15.3746 15.7635 15.5326C16.1102 16.8656 15.3252 18.2027 14.0207 18.5421L7.89629 20.1354C6.64609 20.4606 5.29998 19.8169 4.88029 18.5951C4.80123 18.365 4.75849 18.1337 4.74625 17.9059L1.841 18.6617C0.52673 19.0036 -0.261504 20.3463 0.0803779 21.6605L5.7759 43.554C6.11786 44.8683 7.46044 45.6565 8.77472 45.3146L25.4329 40.981C26.7471 40.6391 27.5353 39.2966 27.1934 37.9823ZM8.15558 42.9349L3.20296 23.8972L19.861 19.5636L24.8137 38.6013L8.15558 42.9349Z" fill="#E2001A"/>
</svg>
