<svg width="48" height="48" viewBox="0 0 48 48" fill="none" xmlns="http://www.w3.org/2000/svg">
<path d="M31.6875 11.7188C31.6875 5.25696 26.4305 0 19.9688 0C13.507 0 8.25 5.25696 8.25 11.7188C8.25 15.5153 10.0653 18.8954 12.8727 21.0381C10.2902 22.0375 7.92078 23.5741 5.90369 25.5912C2.09656 29.3979 0 34.4597 0 39.8438H3.75C3.75 30.7972 11.1097 23.4375 20.1562 23.4375V23.4353C26.532 23.3346 31.6875 18.1179 31.6875 11.7188ZM19.9688 3.75C24.3625 3.75 27.9375 7.32495 27.9375 11.7188C27.9375 16.1125 24.3625 19.6875 19.9688 19.6875C15.575 19.6875 12 16.1125 12 11.7188C12 7.32495 15.575 3.75 19.9688 3.75ZM35.3438 22.6875C28.3652 22.6875 22.6875 28.3652 22.6875 35.3438C22.6875 42.3223 28.3652 48 35.3438 48C42.3223 48 48 42.3223 48 35.3438C48 28.3652 42.3223 22.6875 35.3438 22.6875ZM35.3438 44.25C30.4329 44.25 26.4375 40.2546 26.4375 35.3438C26.4375 30.4329 30.4329 26.4375 35.3438 26.4375C40.2546 26.4375 44.25 30.4329 44.25 35.3438C44.25 40.2546 40.2546 44.25 35.3438 44.25ZM37.125 33.4688H40.3125V37.2188H33.375V29.0625H37.125V33.4688Z" fill="#E2001A"/>
</svg>
