<svg width="48" height="48" viewBox="0 0 48 48" fill="none" xmlns="http://www.w3.org/2000/svg">
<g clip-path="url(#clip0)">
<path d="M47.8489 21.3348C47.7731 20.6602 46.9862 20.1526 46.3057 20.1526C44.1066 20.1526 42.1549 18.8619 41.3364 16.8641C40.5009 14.8184 41.0399 12.433 42.6784 10.9299C43.1944 10.4581 43.2573 9.66802 42.8247 9.11959C41.6988 7.69018 40.4197 6.3988 39.0227 5.27972C38.4761 4.84131 37.673 4.90234 37.1986 5.42731C35.7682 7.01159 33.1985 7.60029 31.2128 6.77183C29.1471 5.90268 27.8433 3.80879 27.9714 1.56129C28.0135 0.854888 27.497 0.241065 26.7931 0.15907C25.0002 -0.0485128 23.1916 -0.0545328 21.3935 0.144954C20.6985 0.22176 20.1824 0.821052 20.2055 1.51853C20.2833 3.74403 18.9648 5.80096 16.919 6.63898C14.9572 7.44045 12.4053 6.85611 10.9778 5.28574C10.506 4.76845 9.71694 4.70493 9.16664 5.134C7.72851 6.26263 6.42053 7.55483 5.28422 8.97262C4.84145 9.52375 4.90684 10.3225 5.42725 10.796C7.09808 12.3091 7.63676 14.715 6.76927 16.7846C5.94101 18.7577 3.89238 20.0287 1.54731 20.0287C0.786316 20.0042 0.244732 20.5155 0.160661 21.2076C-0.0502427 23.01 -0.0525261 24.8475 0.15049 26.6647C0.226258 27.3422 1.03645 27.8454 1.72438 27.8454C3.81474 27.7923 5.82041 29.0855 6.66299 31.1337C7.50141 33.1795 6.9617 35.5638 5.32055 37.069C4.8072 37.5408 4.7416 38.329 5.17503 38.8768C6.28954 40.2973 7.56991 41.5895 8.9711 42.7181C9.52119 43.1611 10.3212 43.099 10.798 42.5734C12.2341 40.9854 14.8033 40.3978 16.781 41.2279C18.8527 42.0947 20.1559 44.1884 20.0286 46.4365C19.9869 47.143 20.5046 47.7586 21.206 47.8388C22.1235 47.9461 23.0458 47.9992 23.971 47.9992C24.8491 47.9992 25.7274 47.9513 26.6057 47.8535C27.3015 47.7767 27.8167 47.1768 27.7933 46.4791C27.7129 44.2546 29.0344 42.1975 31.0776 41.3611C33.0526 40.5545 35.593 41.1448 37.0213 42.7129C37.4957 43.2292 38.2799 43.2919 38.8325 42.8645C40.2682 41.7387 41.5736 40.4472 42.7149 39.0256C43.1581 38.4755 43.0952 37.6757 42.5719 37.2014C40.9015 35.6894 40.3599 33.2824 41.2274 31.2149C42.0428 29.2684 44.0152 27.9615 46.1367 27.9615L46.4336 27.9694C47.1223 28.0252 47.7552 27.4948 47.8385 26.7922C48.0504 24.9881 48.0527 23.1526 47.8489 21.3348ZM23.9999 37.8356C16.3581 37.8356 10.1637 31.6411 10.1637 23.9995C10.1637 16.358 16.3583 10.1635 23.9999 10.1635C31.6414 10.1635 37.8361 16.358 37.8361 23.9995C37.8361 26.5933 37.121 29.0193 35.879 31.0939L29.8205 25.0352C30.2591 24.001 30.4908 22.8798 30.4906 21.7228C30.4906 19.457 29.6082 17.327 28.0058 15.7251C26.4039 14.1232 24.2739 13.2409 22.0085 13.2409C21.2525 13.2409 20.5 13.3414 19.772 13.5397C19.4532 13.6266 19.1925 13.8894 19.1076 14.2089C19.0208 14.5356 19.1186 14.8705 19.3739 15.126C19.3739 15.126 22.365 18.1401 23.3657 19.1407C23.4706 19.2455 23.4703 19.4956 23.4556 19.5857L23.4463 19.6515C23.3454 20.7517 23.1509 22.0723 22.9904 22.5799C22.9688 22.6013 22.9485 22.6193 22.9265 22.6413C22.9034 22.6644 22.8823 22.6866 22.8601 22.7094C22.3459 22.8744 21.0049 23.0712 19.8873 23.1713L19.8875 23.1653L19.8372 23.1779C19.8283 23.179 19.8117 23.1802 19.7897 23.1802C19.6689 23.1802 19.4912 23.1464 19.3297 22.9851C18.288 21.9434 15.4143 19.0902 15.4143 19.0902C15.1564 18.8332 14.892 18.7793 14.7157 18.7793C14.3049 18.7793 13.9371 19.0761 13.8213 19.5018C13.0302 22.4294 13.8688 25.5784 16.0104 27.7203C17.6128 29.3224 19.743 30.2046 22.0088 30.2046C23.1658 30.2046 24.287 29.9732 25.3209 29.5345L31.4453 35.6588C29.2951 37.0347 26.7418 37.8356 23.9999 37.8356Z" fill="#E2001A"/>
</g>
<defs>
<clipPath id="clip0">
<rect width="48" height="48" fill="white"/>
</clipPath>
</defs>
</svg>
