<svg width="48" height="48" viewBox="0 0 48 48" fill="none" xmlns="http://www.w3.org/2000/svg">
<g clip-path="url(#clip0)">
<path d="M35.7836 25.4149C34.9599 24.7876 33.7833 24.9465 33.156 25.7705C32.1182 27.1332 30.8924 28.2835 29.707 29.3956C27.8804 31.1099 26.1332 32.7505 25.4429 34.8749H16.8457C16.1554 32.7505 14.4082 31.1099 12.5819 29.3956C9.62256 26.6187 6.56286 23.7468 6.56286 18.1185C6.56286 14.3055 8.07129 10.7079 10.8102 7.98914C13.5666 5.25281 17.2068 3.74988 21.0707 3.74988C21.1073 3.74988 21.1443 3.74988 21.1809 3.75025H21.1952C22.2242 3.75025 23.0621 2.92005 23.0698 1.88916C23.0775 0.853519 22.244 0.00793768 21.2087 0.000247249C16.3019 -0.0352752 11.6656 1.8562 8.16797 5.32788C4.7146 8.75598 2.8125 13.2985 2.8125 18.1189C2.8125 25.3706 6.97558 29.2773 10.0155 32.1301C12.1179 34.1033 13.4062 35.3865 13.4062 36.8436V42.3749C13.4062 45.4767 15.9298 47.9999 19.0312 47.9999H23.25C26.3518 47.9999 28.875 45.4767 28.875 42.3749V36.9868C28.8787 36.9396 28.8823 36.892 28.8823 36.8436C28.8823 35.3865 30.1706 34.1033 32.2731 32.1301C33.5098 30.9696 34.912 29.6538 36.1388 28.0429C36.7665 27.2189 36.6072 26.0426 35.7836 25.4149ZM23.25 44.2499H19.0312C17.9974 44.2499 17.1562 43.4087 17.1562 42.3749V38.6249H25.125V42.3749C25.125 43.4087 24.2842 44.2499 23.25 44.2499ZM18.9324 11.3605C15.9639 12.2848 13.9691 14.9907 13.9691 18.0936C13.9691 19.1293 13.1298 19.9686 12.0941 19.9686C11.0585 19.9686 10.2191 19.1293 10.2191 18.0936C10.2191 13.3398 13.2729 9.19507 17.818 7.78003C18.8068 7.47241 19.8578 8.02429 20.1654 9.01306C20.473 10.0018 19.9211 11.0529 18.9324 11.3605ZM44.4089 12.1757L42.6046 10.8752C42.6083 10.7815 42.6101 10.6874 42.6101 10.5936C42.6101 10.4801 42.6064 10.3662 42.6013 10.2527C42.5995 10.2153 42.5973 10.1783 42.5951 10.141C42.5929 10.1055 42.5918 10.0699 42.5892 10.0348L44.4507 8.6128C45.1842 8.05286 45.401 7.04248 44.9619 6.23059L44.1181 4.6709C43.6769 3.85462 42.7049 3.48438 41.8326 3.79932L39.616 4.59912C39.3373 4.38929 39.0436 4.20179 38.7392 4.03296C38.7114 4.01795 38.6843 4.0022 38.6565 3.98719C38.5807 3.94654 38.5041 3.90772 38.4272 3.86963C38.3858 3.84912 38.3448 3.82898 38.3031 3.80921C38.2679 3.79273 38.2331 3.77405 38.1976 3.75794L37.7988 1.54273C37.638 0.649539 36.8609 -0.000118962 35.9535 -0.000118962H34.1722C33.2373 -0.000118962 32.4452 0.688724 32.3155 1.61487L32.0152 3.75977C31.463 4.00989 30.9441 4.32593 30.4673 4.70203L28.2916 4.02271C27.4153 3.74915 26.4697 4.15015 26.0574 4.97046L25.2312 6.61438C24.8097 7.45264 25.073 8.47364 25.8472 9.00354L27.6193 10.2168C27.6134 10.3417 27.6097 10.4673 27.6097 10.5936C27.6097 10.7083 27.6134 10.8229 27.6185 10.9375C27.6204 10.9756 27.6229 11.0137 27.6251 11.0518C27.6277 11.0917 27.6291 11.1316 27.6321 11.1715L25.8358 12.5946C25.0997 13.178 24.9086 14.2158 25.3887 15.023L26.2676 16.5006C26.7268 17.2722 27.6687 17.6102 28.5135 17.3063L30.5735 16.5658C31.0228 16.9075 31.5084 17.1971 32.0218 17.4293L32.4206 19.6445C32.5814 20.5374 33.3585 21.1874 34.266 21.1874H35.9535C36.8749 21.1874 37.6593 20.5179 37.805 19.6086L38.1504 17.4513C38.7773 17.1737 39.3622 16.8112 39.8913 16.3717L42.0227 17.0023C42.8928 17.2598 43.8223 16.8569 44.2298 16.0465L44.9879 14.5388C45.4014 13.7156 45.156 12.714 44.4089 12.1757ZM31.366 10.386C31.3663 10.3772 31.3674 10.3688 31.3678 10.36C31.3718 10.2977 31.3769 10.2355 31.3843 10.1732C31.3846 10.1677 31.3854 10.1622 31.3861 10.1567C31.3938 10.0912 31.4033 10.0256 31.4147 9.96009C31.415 9.95642 31.4158 9.9524 31.4165 9.94873C31.4278 9.88391 31.441 9.81909 31.4557 9.75464C31.6124 9.07129 31.9563 8.45862 32.4305 7.97376C32.4433 7.96057 32.4562 7.94702 32.4693 7.93421C32.5067 7.89685 32.5448 7.8606 32.5836 7.82508C32.5924 7.81702 32.6016 7.80896 32.6107 7.80127C32.6887 7.73133 32.7693 7.66431 32.8531 7.60132C32.8601 7.59583 32.8667 7.5907 32.8736 7.58557C32.9198 7.55115 32.9667 7.51746 33.0146 7.48523V7.48487C33.1073 7.42261 33.2029 7.36438 33.301 7.31018C33.3124 7.30396 33.3237 7.29737 33.3351 7.29114C33.3819 7.26587 33.4296 7.24134 33.4775 7.21826C33.4933 7.21057 33.5094 7.20362 33.5251 7.19593C33.6013 7.1604 33.6786 7.12781 33.7569 7.09741C33.7892 7.0846 33.8214 7.07215 33.854 7.06079C33.8913 7.04761 33.9287 7.03479 33.9668 7.02271C34.0188 7.00586 34.0715 6.99048 34.1243 6.9762C34.4385 6.89051 34.7688 6.844 35.1097 6.844C35.4576 6.844 35.7938 6.89234 36.1135 6.98133C36.1666 6.99597 36.219 7.01172 36.2714 7.02893C36.301 7.03846 36.3307 7.04834 36.3603 7.05896C36.4068 7.07544 36.4526 7.09302 36.4984 7.11133C36.5383 7.12744 36.5779 7.14392 36.6167 7.16114C36.6639 7.18164 36.7104 7.20325 36.7566 7.22559C36.7888 7.24134 36.8203 7.25782 36.8518 7.27429C36.8888 7.2937 36.925 7.31421 36.9617 7.33509C36.9906 7.35157 37.0199 7.36768 37.0484 7.38489C37.1056 7.41968 37.162 7.45594 37.2173 7.49366C37.2433 7.5116 37.2685 7.52991 37.2938 7.54822C37.3326 7.57605 37.3707 7.60462 37.4084 7.63391C37.4311 7.65186 37.4542 7.66907 37.4765 7.68738C37.5318 7.73279 37.586 7.7793 37.6391 7.82801C37.6549 7.84192 37.6695 7.85694 37.6849 7.87158C37.7278 7.91187 37.7695 7.95325 37.8102 7.9961C38.265 8.46851 38.5972 9.05921 38.7554 9.71692C38.7682 9.77075 38.7803 9.82495 38.7905 9.87915C38.7949 9.90003 38.7982 9.92127 38.8022 9.94251C38.811 9.99341 38.8187 10.0439 38.8257 10.0949C38.8286 10.1168 38.8315 10.1388 38.8341 10.1611C38.8403 10.2135 38.8447 10.2659 38.8487 10.3186C38.8502 10.3384 38.852 10.3582 38.8531 10.3783C38.8572 10.4501 38.8597 10.5219 38.8597 10.594C38.8597 10.7233 38.8531 10.8533 38.84 10.9822C38.8392 10.9877 38.8381 10.9932 38.8378 10.9987C38.8315 11.0565 38.8242 11.1144 38.815 11.1719C38.8118 11.1935 38.8074 11.2151 38.8037 11.2367C38.7967 11.277 38.7898 11.3169 38.7817 11.3568C38.6477 12.0021 38.347 12.5866 37.9274 13.0645C37.8732 13.1263 37.8175 13.1868 37.76 13.2443C37.7475 13.2571 37.734 13.2692 37.7212 13.2816C37.6761 13.3256 37.6296 13.368 37.5827 13.4094C37.5575 13.4314 37.5329 13.4534 37.5073 13.4746C37.4553 13.5182 37.4018 13.5603 37.3476 13.601C37.3143 13.6259 37.2799 13.6497 37.2458 13.6735C37.2154 13.6943 37.185 13.7148 37.1546 13.735C37.0993 13.7709 37.043 13.8057 36.9858 13.8386C36.9507 13.8591 36.9155 13.8796 36.8796 13.8987C36.8423 13.9188 36.8042 13.9382 36.7661 13.9573C36.7243 13.9774 36.6826 13.9972 36.6401 14.0159C36.5969 14.0356 36.553 14.0543 36.5087 14.0719C36.4545 14.0939 36.3995 14.1147 36.3442 14.1342C36.3179 14.1433 36.2911 14.1525 36.2644 14.1613C36.1879 14.1858 36.1102 14.2089 36.0315 14.2286C35.7367 14.3037 35.428 14.3436 35.1101 14.3436C34.7607 14.3436 34.4234 14.2949 34.1026 14.2052C34.0506 14.1909 33.9994 14.1755 33.9485 14.1587C33.9173 14.1484 33.8862 14.1382 33.8551 14.1272C33.8108 14.1111 33.7668 14.0942 33.7229 14.0767C33.6738 14.0569 33.6251 14.0364 33.5771 14.0148C33.5391 13.9976 33.501 13.9804 33.4632 13.962C33.4274 13.9445 33.3918 13.9258 33.3567 13.9071C33.3252 13.8906 33.2944 13.8731 33.2637 13.8558C33.2117 13.8262 33.1604 13.7954 33.1102 13.7636C33.074 13.7408 33.0377 13.7178 33.0026 13.6936C32.9703 13.6716 32.9385 13.6489 32.907 13.6259C32.8758 13.6032 32.8451 13.5797 32.8143 13.5559C32.7861 13.5339 32.7572 13.512 32.7294 13.4893C32.6781 13.4468 32.6279 13.4032 32.5788 13.3582C32.5547 13.3362 32.5316 13.3131 32.5082 13.2908C32.4741 13.2578 32.4412 13.2245 32.4082 13.1904C31.9519 12.7158 31.6194 12.1222 31.4623 11.4608C31.4502 11.4103 31.4388 11.3597 31.4289 11.3085C31.4245 11.2861 31.4209 11.2638 31.4169 11.2415C31.4084 11.192 31.4007 11.1422 31.3942 11.0924C31.3912 11.0701 31.3879 11.0477 31.3854 11.025C31.3795 10.973 31.3751 10.921 31.3711 10.8687C31.3696 10.8489 31.3678 10.8291 31.3663 10.809C31.3623 10.7376 31.3601 10.6654 31.3601 10.5936C31.3597 10.5244 31.3619 10.4552 31.366 10.386ZM15.4687 22.2186C16.5044 22.2186 17.3437 23.058 17.3437 24.0936C17.3437 25.1293 16.5044 25.9686 15.4687 25.9686C14.4335 25.9686 13.5937 25.1293 13.5937 24.0936C13.5937 23.058 14.4335 22.2186 15.4687 22.2186Z" fill="#E2001A"/>
</g>
<defs>
<clipPath id="clip0">
<rect width="48" height="48" fill="white"/>
</clipPath>
</defs>
</svg>
