<svg width="42" height="48" viewBox="0 0 42 48" fill="none" xmlns="http://www.w3.org/2000/svg">
<path d="M41.3895 13.0226L41.388 12.9853C41.3671 12.5242 41.3532 12.0364 41.3448 11.4937C41.3056 8.84711 39.2017 6.65791 36.5548 6.50996C31.036 6.20198 26.7667 4.40242 23.1189 0.846891L23.0877 0.817228C21.8979 -0.273711 20.1031 -0.273711 18.913 0.817228L18.8818 0.846891C15.234 4.40242 10.9647 6.20198 5.44595 6.51033C2.79935 6.65791 0.695112 8.84711 0.655928 11.4941C0.647871 12.0331 0.633589 12.5209 0.612715 12.9853L0.610517 13.0721C0.503218 18.6996 0.369918 25.7034 2.71293 32.0604C4.00126 35.5563 5.95242 38.5951 8.51186 41.093C11.4269 43.9377 15.245 46.1961 19.86 47.8053C20.0101 47.8576 20.1661 47.9001 20.3251 47.932C20.5492 47.9766 20.7748 47.999 21.0004 47.999C21.2259 47.999 21.4519 47.9766 21.6756 47.932C21.8346 47.9001 21.9917 47.8573 22.1426 47.8045C26.752 46.1925 30.5661 43.933 33.4786 41.0886C36.0369 38.59 37.9881 35.5504 39.2775 32.0538C41.6293 25.6778 41.4964 18.6608 41.3895 13.0226ZM36.635 31.0794C34.1638 37.7795 29.1192 42.381 21.2131 45.1458C21.1849 45.1554 21.1549 45.1638 21.1238 45.17C21.0421 45.1861 20.959 45.1861 20.8762 45.1696C20.8454 45.1634 20.8154 45.1554 20.7876 45.1458C12.8731 42.3861 7.82522 37.7872 5.35587 31.0867C3.19633 25.2269 3.31864 18.7978 3.42667 13.1259L3.4274 13.0944C3.44938 12.607 3.46403 12.0965 3.47208 11.5355C3.48966 10.3603 4.42569 9.38801 5.60306 9.32245C8.7261 9.14814 11.4697 8.54462 13.9907 7.47749C16.5084 6.41182 18.7445 4.90962 20.826 2.88522C20.9319 2.79586 21.0692 2.79549 21.1747 2.88522C23.2566 4.90962 25.4927 6.41182 28.01 7.47749C30.531 8.54462 33.2746 9.14814 36.398 9.32245C37.5754 9.38801 38.5114 10.3603 38.5286 11.5358C38.537 12.0998 38.5517 12.6103 38.5737 13.0944C38.6813 18.7729 38.8007 25.2072 36.635 31.0794Z" fill="#E2001A"/>
<path d="M20.9997 12.0386C14.4035 12.0386 9.03741 17.405 9.03741 24.0009C9.03741 30.597 14.4035 35.9635 20.9997 35.9635C27.5955 35.9635 32.962 30.597 32.962 24.0009C32.962 17.405 27.5955 12.0386 20.9997 12.0386ZM20.9997 33.1466C15.9566 33.1466 11.8539 29.0439 11.8539 24.0009C11.8539 18.9578 15.9566 14.8551 20.9997 14.8551C26.0424 14.8551 30.1451 18.9578 30.1451 24.0009C30.1451 29.0439 26.0424 33.1466 20.9997 33.1466Z" fill="#E2001A"/>
<path d="M24.4377 20.2871L18.8815 25.8432L17.3734 24.3352C16.8234 23.7851 15.9317 23.7851 15.3816 24.3352C14.8319 24.8852 14.8319 25.7769 15.3816 26.3266L17.8858 28.8308C18.1608 29.1058 18.5211 29.2431 18.8815 29.2431C19.2419 29.2431 19.6022 29.1058 19.8772 28.8308L26.4295 22.2785C26.9792 21.7285 26.9792 20.8368 26.4295 20.2871C25.8794 19.7367 24.9877 19.7367 24.4377 20.2871Z" fill="#E2001A"/>
</svg>
