<svg width="14" height="14" viewBox="0 0 14 14" fill="none" xmlns="http://www.w3.org/2000/svg">
<path d="M13.5266 2.75762L9.28463 6.99997L13.5266 11.2421C14.1575 11.8733 14.1575 12.8958 13.5266 13.527C13.2113 13.8423 12.798 14 12.3848 14C11.971 14 11.5577 13.8425 11.2426 13.527L6.99979 9.28437L2.75726 13.527C2.44204 13.8422 2.02867 14 1.61518 14C1.20181 14 0.788724 13.8425 0.473221 13.527C-0.157744 12.896 -0.157744 11.8735 0.473221 11.2421L4.71502 6.99993L0.47298 2.75762C-0.157985 2.12665 -0.157985 1.10395 0.47298 0.472983C1.10382 -0.157498 2.12593 -0.157498 2.75702 0.472983L6.99975 4.71534L11.2422 0.472983C11.8734 -0.157498 12.8956 -0.157498 13.5263 0.472983C14.1575 1.10395 14.1575 2.12665 13.5266 2.75762Z" fill="#817F7F"/>
</svg>
